<?xml version="1.0" encoding="UTF-8"?>
<svg id="Layer_1" data-name="Layer 1" xmlns="http://www.w3.org/2000/svg" viewBox="0 0 993.95 912.23">
  <defs>
    <style>
      .cls-1 {
        fill: #000;
        stroke-width: 0px;
      }
    </style>
  </defs>
  <path class="cls-1" d="M988.96,600.43c3.33-36.15,5.69-72.63,4.81-108.87-1-41.19-6.67-81.91-18.22-122.09-14.62-50.91-35.97-98.2-65.73-141.6-15.92-23.22-32.65-46.35-52.06-66.59-19.79-20.64-40.75-42.54-64.2-59.15-23.01-16.3-62.24-39.14-100.1-57.43-20.49-9.9-32.02-15.47-68.21-26.33-33.47-10.04-55.16-12.42-80.05-15.41-15.89-1.91-32.11-3.07-48.22-2.95-16.11-.12-32.33,1.03-48.22,2.95-24.89,3-46.58,5.37-80.05,15.41-36.19,10.86-47.71,16.43-68.21,26.33-37.86,18.29-77.09,41.12-100.1,57.43-23.45,16.61-44.41,38.51-64.2,59.15-19.41,20.25-36.14,43.37-52.06,66.59-29.77,43.4-51.11,90.7-65.73,141.6C6.86,409.64,1.19,450.36.19,491.56c-.88,36.25,1.47,72.72,4.81,108.87,3.26,35.32,9.72,70.34,14.39,105.54.89,6.67.07,13.59-.1,20.38-.2,8.05-1.95,16.33-.61,24.1,6.55,38.1,14.1,76.02,20.9,114.08,5.58,31.22,19.27,48.5,53.97,47.67,15.55-.37,28.07-4.58,46.47-9.05,24.99-6.06,39.68-20.94,34.1-49.08-.94-4.74-1.61-8.41-2.3-12.23,8.98-3.97,12.19-.21,14.65,6.51,2.93,8.02,12.41,9.11,14.44,8.66,12.36-2.77,15.06-3.82,24.08-9.09,16.46-9.62,11.42-27.38,8.92-40.91-4.4-23.85-8.32-30.14-32.05-35.52-13.66-3.1-21.9,2.36-25.12,15.12-.16.64-.3,1.26-.42,1.85-1.05,5.01-6.09,8.33-11.02,6.96-.16-.04-.29-.09-.38-.13-5.95-24.35-12.01-48.67-17.82-73.05-3.34-14.01-5.89-28.96-22.68-32.88-8.88-2.07-18.45-1.18-29.97-1.74-5.06-28.84-10.78-58.71-15.46-88.75-5.28-33.89-11.66-67.8-13.84-101.95-2.67-41.86-.28-83.83,11.97-124.56,4.65-15.48,10.32-37.65,16.4-52.53,7.42-18.14,5.89-17.3,23.29-46.86,18.12-30.79,37.11-59.41,60.27-85.59,29.35-33.17,63.48-61.17,102.44-82.5,22.4-12.27,45.27-24.27,69.16-33.05,20.03-7.36,39.39-12.81,60.59-16.49,22.52-3.92,47.58-5.55,70.35-6.64,5.81-.28,11.6-.35,17.39-.33,5.79-.02,11.58.05,17.39.33,22.78,1.09,47.83,2.72,70.35,6.64,21.19,3.68,40.56,9.13,60.59,16.49,23.89,8.78,46.76,20.78,69.16,33.05,38.95,21.34,73.08,49.33,102.44,82.5,23.16,26.18,42.15,54.8,60.27,85.59,17.39,29.56,15.87,28.72,23.29,46.86,6.08,14.88,11.75,37.05,16.4,52.53,12.24,40.73,14.64,82.71,11.97,124.56-2.18,34.14-8.56,68.05-13.84,101.95-4.68,30.04-10.4,59.92-15.46,88.75-11.52.56-21.09-.34-29.97,1.74-16.79,3.92-19.34,18.87-22.68,32.88-5.81,24.38-11.87,48.7-17.82,73.05-.1.04-.23.09-.38.13-4.93,1.37-9.97-1.95-11.02-6.96-.12-.59-.26-1.21-.42-1.85-3.22-12.76-11.46-18.21-25.12-15.12-23.72,5.38-27.65,11.67-32.05,35.52-2.5,13.53-7.54,31.29,8.92,40.91,9.02,5.27,11.72,6.32,24.08,9.09,2.02.45,11.51-.64,14.44-8.66,2.45-6.71,5.67-10.47,14.65-6.51-.7,3.82-1.36,7.5-2.3,12.23-5.58,28.14,9.11,43.02,34.1,49.08,18.41,4.47,30.93,8.68,46.47,9.05,34.7.83,48.39-16.45,53.97-47.67,6.8-38.06,14.35-75.98,20.9-114.08,1.34-7.77-.41-16.05-.61-24.1-.17-6.8-.99-13.71-.1-20.38,4.67-35.2,11.13-70.22,14.39-105.54Z"/>
</svg>