<?xml version="1.0" standalone="no"?>
<!DOCTYPE svg PUBLIC "-//W3C//DTD SVG 20010904//EN"
 "http://www.w3.org/TR/2001/REC-SVG-20010904/DTD/svg10.dtd">
<svg version="1.0" xmlns="http://www.w3.org/2000/svg"
 width="1000.000000pt" height="1000.000000pt" viewBox="0 0 1000.000000 1000.000000"
 preserveAspectRatio="xMidYMid meet">

<g transform="translate(0.000000,1000.000000) scale(0.100000,-0.100000)"
fill="#000000" stroke="none">
<path d="M4750 8014 c-19 -2 -84 -9 -145 -14 -647 -62 -1358 -298 -1960 -650
-420 -246 -661 -436 -894 -705 -335 -388 -532 -782 -608 -1220 -23 -139 -23
-471 0 -610 76 -439 251 -785 551 -1094 271 -278 609 -469 991 -562 473 -114
1023 -104 2040 36 474 66 497 68 505 55 4 -6 10 -44 14 -83 4 -40 18 -126 31
-193 107 -527 379 -861 786 -965 133 -34 384 -38 554 -9 298 50 615 172 898
344 458 278 819 676 1062 1171 208 423 298 804 299 1275 1 360 -44 630 -160
955 -195 545 -671 1158 -1209 1556 -522 386 -1108 601 -1895 695 -127 15 -765
29 -860 18z m682 -1060 c351 -36 800 -145 993 -241 176 -88 326 -176 313 -184
-7 -5 -21 -9 -30 -9 -9 0 -86 -20 -170 -44 -527 -153 -1002 -414 -1483 -816
-204 -170 -416 -373 -729 -699 -483 -503 -654 -655 -839 -746 -138 -68 -234
-89 -382 -82 -173 7 -299 52 -481 173 -263 173 -434 468 -451 775 -10 179 30
350 129 542 154 299 292 440 675 691 580 379 1151 585 1803 649 109 11 515 5
652 -9z m1758 -1565 c122 -34 204 -83 301 -179 94 -93 142 -169 189 -298 127
-348 53 -763 -205 -1147 -253 -376 -629 -640 -999 -700 -50 -8 -105 -15 -121
-15 l-30 0 -2 183 c-5 734 -253 1001 -1000 1079 -62 6 -113 15 -113 18 0 17
419 427 540 528 368 308 756 498 1135 556 63 9 232 -4 305 -25z"/>
</g>
</svg>
